<?xml version="1.0" standalone="no"?><!DOCTYPE svg PUBLIC "-//W3C//DTD SVG 1.1//EN" "http://www.w3.org/Graphics/SVG/1.1/DTD/svg11.dtd"><svg t="1622955192604" class="icon" viewBox="0 0 1024 1024" version="1.1" xmlns="http://www.w3.org/2000/svg" p-id="1173" width="16" height="16" xmlns:xlink="http://www.w3.org/1999/xlink"><defs><style type="text/css"></style></defs><path d="M577.728 512l431.872 431.872a45.44 45.44 0 0 1 0 65.728 45.44 45.44 0 0 1-65.728 0L512 577.728l-431.872 431.872a45.44 45.44 0 0 1-65.728 0 45.44 45.44 0 0 1 0-65.728L446.272 512 14.4 80.128a45.44 45.44 0 0 1 0-65.728 45.44 45.44 0 0 1 65.728 0L512 446.272 943.872 14.4a45.44 45.44 0 0 1 65.728 0 45.44 45.44 0 0 1 0 65.728L577.728 512z" p-id="1174" fill="#1296db"></path></svg>